<?xml version="1.0" encoding="UTF-8"?>
<svg xmlns="http://www.w3.org/2000/svg" xmlns:xlink="http://www.w3.org/1999/xlink" width="200px" height="200px" viewBox="0 0 200 200" version="1.1">
<g id="surface1">
<path style=" stroke:none;fill-rule:nonzero;fill:rgb(0%,0%,0%);fill-opacity:1;" d="M 99.207031 1.359375 L 93.332031 21.742188 L 97.867188 21.742188 L 90.363281 42.25 C 88.136719 41.617188 86.347656 41.125 85.84375 41.042969 C 83.800781 40.699219 82.191406 41.929688 80.949219 44.769531 C 79.8125 47.367188 79.839844 51.152344 81.007812 53.027344 C 81.605469 53.980469 83.328125 56.070312 84.121094 57.019531 C 84.160156 57.078125 84.203125 57.113281 84.246094 57.164062 L 84.515625 57.484375 L 84.527344 57.457031 C 84.714844 57.601562 84.921875 57.699219 85.144531 57.699219 C 85.933594 57.699219 86.570312 56.710938 86.570312 55.488281 C 86.570312 54.875 86.40625 54.316406 86.144531 53.917969 L 86.152344 53.902344 C 85.152344 52.726562 83.410156 50.59375 82.976562 49.902344 C 82.839844 49.609375 82.789062 48.292969 83.214844 47.320312 C 83.871094 45.816406 84.542969 45.300781 85.566406 45.460938 C 85.835938 45.507812 86.523438 45.679688 87.460938 45.925781 C 87.492188 47.238281 88.707031 48.625 90.34375 49.109375 C 92.042969 49.617188 93.539062 48.96875 93.78125 47.664062 C 97.796875 48.792969 101.761719 49.933594 101.839844 49.949219 C 102.121094 49.886719 105.945312 48.785156 109.828125 47.6875 C 110.085938 48.976562 111.574219 49.617188 113.261719 49.109375 C 114.890625 48.625 116.105469 47.25 116.144531 45.933594 C 116.796875 45.753906 117.457031 45.59375 118.113281 45.453125 C 119.136719 45.289062 119.808594 45.804688 120.464844 47.3125 C 120.886719 48.28125 120.839844 49.597656 120.703125 49.890625 C 120.269531 50.582031 118.523438 52.714844 117.527344 53.890625 L 117.535156 53.910156 C 117.265625 54.316406 117.113281 54.882812 117.109375 55.480469 C 117.109375 56.699219 117.746094 57.6875 118.535156 57.6875 C 118.757812 57.6875 118.964844 57.59375 119.152344 57.445312 L 119.167969 57.476562 L 119.433594 57.15625 C 119.476562 57.101562 119.523438 57.066406 119.558594 57.007812 C 120.347656 56.058594 122.074219 53.972656 122.667969 53.019531 C 123.835938 51.140625 123.863281 47.359375 122.730469 44.753906 C 121.488281 41.917969 119.875 40.6875 117.835938 41.03125 C 116.375 41.269531 104.121094 44.941406 101.804688 45.453125 C 100.351562 45.132812 95.460938 43.707031 91.449219 42.558594 L 110.429688 15.691406 L 103.378906 15.691406 L 112.789062 1.359375 L 116.871094 1.359375 C 122.527344 1.359375 127.542969 7.183594 129.316406 15.804688 L 138.492188 60.378906 C 140.292969 69.132812 138.335938 78.753906 133.664062 84.117188 L 109.410156 111.9375 C 104.851562 117.167969 98.726562 117.167969 94.171875 111.9375 L 69.917969 84.117188 C 65.246094 78.757812 63.289062 69.136719 65.089844 60.378906 L 74.261719 15.804688 C 76.035156 7.183594 81.054688 1.359375 86.710938 1.359375 Z M 114.394531 93.800781 C 113.683594 93.511719 110.855469 91.789062 110.855469 91.789062 C 109.425781 91.214844 107.945312 91.035156 106.480469 91.257812 C 106.480469 91.257812 91.726562 94.183594 90.417969 94.433594 C 89.109375 94.6875 87.835938 94.0625 87.835938 94.0625 L 95.644531 103.167969 C 96.980469 104.730469 98.589844 105.574219 100.242188 105.578125 L 104.117188 105.578125 C 105.773438 105.578125 107.382812 104.730469 108.71875 103.167969 L 116.515625 94.058594 C 116.515625 94.058594 115.382812 94.210938 114.394531 93.804688 Z M 108.191406 65.210938 C 108.140625 65.21875 108.101562 65.257812 108.054688 65.257812 L 104.433594 65.257812 C 103.695312 65.253906 103.097656 64.292969 103.097656 63.109375 C 103.097656 62.875 103.132812 62.664062 103.179688 62.457031 C 103.351562 61.574219 103.859375 60.972656 104.433594 60.964844 L 107.363281 60.964844 C 107.5625 60.515625 107.679688 59.96875 107.679688 59.378906 C 107.679688 57.855469 106.910156 56.617188 105.960938 56.617188 L 97.207031 56.617188 C 96.566406 56.617188 95.980469 57.1875 95.683594 58.097656 C 95.386719 59.003906 95.429688 60.101562 95.792969 60.945312 L 99.089844 60.945312 C 99.679688 60.945312 100.167969 61.574219 100.34375 62.429688 C 100.394531 62.640625 100.421875 62.863281 100.425781 63.089844 C 100.425781 64.273438 99.828125 65.238281 99.089844 65.238281 L 95.46875 65.238281 C 95.4375 65.238281 95.414062 65.210938 95.382812 65.207031 L 86.824219 90.347656 C 86.824219 90.347656 88.46875 88.40625 90.183594 87.910156 C 92.082031 87.363281 107.96875 83.914062 107.96875 83.914062 C 107.96875 83.914062 112.035156 86.699219 113.84375 87.707031 C 114.972656 88.335938 116.851562 90.417969 116.851562 90.417969 Z M 11.914062 156.070312 L 9.285156 146.777344 L 9.203125 146.777344 L 6.628906 156.070312 Z M 0.550781 165.070312 L 8.730469 136.632812 C 8.808594 136.378906 8.941406 136.167969 9.179688 136.167969 L 9.441406 136.167969 C 9.703125 136.167969 9.808594 136.378906 9.886719 136.632812 L 17.992188 165.070312 C 18.148438 165.621094 17.941406 166.167969 17.542969 166.167969 L 15.253906 166.167969 C 14.859375 166.167969 14.675781 165.917969 14.492188 165.324219 L 13.203125 160.757812 L 5.339844 160.757812 L 4.050781 165.324219 C 3.933594 165.839844 3.628906 166.179688 3.285156 166.167969 L 0.996094 166.167969 C 0.601562 166.167969 0.390625 165.621094 0.546875 165.070312 Z M 19.863281 137.394531 C 19.863281 136.976562 20.070312 136.59375 20.359375 136.59375 L 22.78125 136.59375 C 23.054688 136.609375 23.273438 136.957031 23.28125 137.394531 L 23.28125 161.101562 L 29.992188 161.101562 C 30.28125 161.101562 30.492188 161.480469 30.492188 161.902344 L 30.492188 165.367188 C 30.492188 165.792969 30.28125 166.171875 29.992188 166.171875 L 20.359375 166.171875 C 20.230469 166.171875 20.101562 166.085938 20.007812 165.9375 C 19.914062 165.785156 19.863281 165.582031 19.863281 165.367188 Z M 32.625 137.394531 C 32.625 136.976562 32.859375 136.59375 33.125 136.59375 L 35.570312 136.59375 C 35.832031 136.59375 36.070312 136.976562 36.070312 137.394531 L 36.070312 165.367188 C 36.070312 165.792969 35.832031 166.171875 35.570312 166.171875 L 33.125 166.171875 C 32.851562 166.15625 32.632812 165.804688 32.625 165.367188 Z M 46.910156 161.183594 C 48.226562 161.183594 49.277344 159.539062 49.277344 157.339844 C 49.277344 155.226562 47.964844 153.664062 46.59375 153.664062 L 43.726562 153.664062 L 43.726562 161.183594 Z M 46.542969 149.015625 C 47.882812 149.015625 48.800781 147.324219 48.800781 145.210938 C 48.800781 143.097656 47.882812 141.621094 46.542969 141.621094 L 43.726562 141.621094 L 43.726562 149.015625 Z M 40.332031 137.394531 C 40.332031 136.972656 40.542969 136.59375 40.832031 136.59375 L 46.855469 136.59375 C 49.988281 136.59375 52.40625 139.972656 52.40625 144.410156 C 52.40625 147.664062 50.753906 150.195312 49.511719 151.125 C 50.90625 151.847656 52.933594 154.128906 52.933594 158.015625 C 52.933594 162.746094 50.410156 166.167969 47.199219 166.167969 L 40.832031 166.167969 C 40.699219 166.167969 40.570312 166.085938 40.480469 165.933594 C 40.382812 165.785156 40.332031 165.578125 40.332031 165.367188 Z M 65.011719 156.070312 L 62.378906 146.777344 L 62.300781 146.777344 L 59.722656 156.070312 Z M 53.648438 165.070312 L 61.832031 136.632812 C 61.910156 136.382812 62.042969 136.167969 62.277344 136.167969 L 62.539062 136.167969 C 62.804688 136.167969 62.910156 136.382812 62.988281 136.632812 L 71.089844 165.070312 C 71.25 165.621094 71.039062 166.171875 70.644531 166.171875 L 68.355469 166.171875 C 67.960938 166.171875 67.777344 165.917969 67.589844 165.324219 L 66.300781 160.761719 L 58.4375 160.761719 L 57.148438 165.328125 C 57.03125 165.84375 56.722656 166.183594 56.382812 166.171875 L 54.097656 166.171875 C 53.703125 166.171875 53.488281 165.621094 53.648438 165.070312 Z M 79.542969 161.183594 C 80.855469 161.183594 81.90625 159.539062 81.90625 157.339844 C 81.90625 155.226562 80.59375 153.664062 79.226562 153.664062 L 76.359375 153.664062 L 76.359375 161.183594 Z M 79.171875 149.015625 C 80.511719 149.015625 81.433594 147.324219 81.433594 145.210938 C 81.433594 143.097656 80.511719 141.621094 79.171875 141.621094 L 76.359375 141.621094 L 76.359375 149.015625 Z M 72.964844 137.394531 C 72.964844 136.972656 73.175781 136.59375 73.460938 136.59375 L 79.488281 136.59375 C 82.617188 136.59375 85.039062 139.972656 85.039062 144.414062 C 85.039062 147.664062 83.382812 150.199219 82.144531 151.128906 C 83.539062 151.847656 85.566406 154.128906 85.566406 158.015625 C 85.566406 162.746094 83.039062 166.171875 79.828125 166.171875 L 73.460938 166.171875 C 73.332031 166.171875 73.203125 166.085938 73.109375 165.9375 C 73.015625 165.785156 72.964844 165.582031 72.964844 165.367188 Z M 97.640625 156.070312 L 95.011719 146.777344 L 94.933594 146.777344 L 92.355469 156.070312 Z M 86.277344 165.070312 L 94.457031 136.632812 C 94.539062 136.382812 94.671875 136.167969 94.90625 136.167969 L 95.167969 136.167969 C 95.433594 136.167969 95.535156 136.382812 95.617188 136.632812 L 103.71875 165.070312 C 103.878906 165.621094 103.667969 166.171875 103.273438 166.171875 L 100.984375 166.171875 C 100.589844 166.171875 100.402344 165.917969 100.21875 165.324219 L 98.929688 160.761719 L 91.066406 160.761719 L 89.777344 165.328125 C 89.660156 165.84375 89.355469 166.183594 89.015625 166.171875 L 86.722656 166.171875 C 86.328125 166.171875 86.117188 165.621094 86.277344 165.070312 Z M 109.621094 137.394531 C 109.621094 136.976562 109.832031 136.59375 110.121094 136.59375 L 120.828125 136.59375 C 121.117188 136.59375 121.328125 136.976562 121.328125 137.394531 L 121.328125 140.863281 C 121.328125 141.074219 121.277344 141.28125 121.179688 141.429688 C 121.089844 141.582031 120.960938 141.664062 120.828125 141.664062 L 113.039062 141.664062 L 113.039062 149.605469 L 119.539062 149.605469 C 119.800781 149.605469 120.039062 149.988281 120.039062 150.410156 L 120.039062 153.875 C 120.039062 154.300781 119.800781 154.679688 119.539062 154.679688 L 113.039062 154.679688 L 113.039062 165.367188 C 113.039062 165.789062 112.804688 166.171875 112.542969 166.171875 L 110.121094 166.171875 C 109.984375 166.171875 109.859375 166.085938 109.765625 165.9375 C 109.671875 165.785156 109.621094 165.582031 109.621094 165.367188 Z M 123.671875 137.394531 C 123.671875 136.976562 123.90625 136.59375 124.171875 136.59375 L 126.667969 136.59375 C 126.960938 136.59375 127.171875 136.976562 127.171875 137.394531 L 127.171875 154.679688 C 127.171875 158.269531 128.695312 161.101562 130.984375 161.101562 C 133.273438 161.101562 134.824219 158.269531 134.824219 154.722656 L 134.824219 137.394531 C 134.824219 136.972656 135.035156 136.59375 135.328125 136.59375 L 137.824219 136.59375 C 138.089844 136.59375 138.324219 136.972656 138.324219 137.394531 L 138.324219 154.972656 C 138.324219 161.394531 135.140625 166.589844 130.984375 166.589844 C 126.855469 166.589844 123.671875 161.394531 123.671875 154.972656 Z M 141.25 162.03125 L 142.195312 159.414062 C 142.28125 159.167969 142.429688 158.996094 142.601562 158.941406 C 142.773438 158.882812 142.949219 158.949219 143.089844 159.117188 C 143.222656 159.242188 145.351562 161.738281 147.0625 161.738281 C 148.429688 161.738281 149.457031 160.300781 149.457031 158.484375 C 149.457031 156.328125 148.324219 154.847656 146.117188 153.410156 C 143.644531 151.804688 141.171875 149.269531 141.171875 144.285156 C 141.171875 140.523438 142.90625 136.171875 147.089844 136.171875 C 149.769531 136.171875 151.824219 138.371094 152.351562 139.003906 C 152.613281 139.257812 152.691406 139.972656 152.507812 140.398438 L 151.507812 142.800781 C 151.300781 143.3125 150.90625 143.652344 150.589844 143.3125 C 150.378906 143.097656 148.375 140.988281 146.929688 140.988281 C 145.433594 140.988281 144.617188 142.59375 144.617188 143.949219 C 144.617188 145.933594 145.585938 147.28125 147.722656 148.679688 C 150.273438 150.328125 153.21875 152.777344 153.21875 158.226562 C 153.21875 162.578125 150.878906 166.59375 147.167969 166.59375 C 143.855469 166.59375 141.90625 164.101562 141.378906 163.296875 C 141.144531 162.917969 141.011719 162.707031 141.25 162.03125 Z M 156.0625 137.394531 C 156.074219 136.957031 156.289062 136.609375 156.5625 136.59375 L 159.011719 136.59375 C 159.273438 136.59375 159.507812 136.976562 159.507812 137.394531 L 159.507812 165.367188 C 159.507812 165.792969 159.273438 166.171875 159.011719 166.171875 L 156.5625 166.171875 C 156.289062 166.15625 156.070312 165.804688 156.0625 165.367188 Z M 171.898438 161.101562 C 175.214844 161.101562 177.949219 156.75 177.949219 151.425781 C 177.949219 146.101562 175.214844 141.664062 171.902344 141.664062 C 168.585938 141.664062 165.875 146.101562 165.875 151.425781 C 165.886719 156.761719 168.578125 161.085938 171.902344 161.101562 Z M 171.898438 136.171875 C 174.417969 136.164062 176.832031 137.769531 178.613281 140.632812 C 180.386719 143.496094 181.382812 147.378906 181.371094 151.425781 C 181.371094 159.875 177.164062 166.59375 171.898438 166.59375 C 169.390625 166.617188 166.976562 165.027344 165.203125 162.175781 C 163.429688 159.328125 162.441406 155.453125 162.457031 151.425781 C 162.457031 142.972656 166.640625 136.171875 171.902344 136.171875 Z M 184.292969 136.929688 C 184.292969 136.511719 184.53125 136.171875 184.792969 136.171875 L 185.449219 136.171875 L 196.394531 154.847656 L 196.421875 154.847656 L 196.421875 137.394531 C 196.421875 136.96875 196.632812 136.59375 196.921875 136.59375 L 199.34375 136.59375 C 199.605469 136.59375 199.84375 136.972656 199.84375 137.394531 L 199.84375 165.832031 C 199.84375 166.253906 199.605469 166.59375 199.34375 166.59375 L 198.710938 166.59375 L 187.714844 147.199219 L 187.6875 147.199219 L 187.6875 165.367188 C 187.6875 165.789062 187.476562 166.167969 187.1875 166.167969 L 184.792969 166.167969 C 184.519531 166.15625 184.300781 165.804688 184.292969 165.367188 Z M 62.773438 195.371094 C 64.898438 195.371094 66.453125 192.796875 66.453125 189.355469 C 66.453125 185.9375 64.898438 183.367188 62.773438 183.367188 L 60.910156 183.367188 L 60.910156 195.367188 L 62.773438 195.367188 Z M 58.796875 180.6875 C 58.796875 180.425781 58.929688 180.1875 59.09375 180.1875 L 62.96875 180.1875 C 66.125 180.1875 68.707031 184.308594 68.707031 189.355469 C 68.707031 194.441406 66.136719 198.566406 62.96875 198.574219 L 59.09375 198.574219 C 58.929688 198.574219 58.796875 198.335938 58.796875 198.074219 Z M 75.578125 180.6875 C 75.578125 180.425781 75.707031 180.1875 75.886719 180.1875 L 82.542969 180.1875 C 82.722656 180.1875 82.855469 180.425781 82.855469 180.6875 L 82.855469 182.839844 C 82.855469 183.101562 82.722656 183.339844 82.542969 183.339844 L 77.703125 183.339844 L 77.703125 187.644531 L 81.742188 187.644531 C 81.90625 187.644531 82.050781 187.886719 82.050781 188.144531 L 82.050781 190.324219 C 82.050781 190.601562 81.910156 190.824219 81.742188 190.828125 L 77.703125 190.828125 L 77.703125 195.421875 L 82.542969 195.421875 C 82.722656 195.421875 82.855469 195.65625 82.855469 195.917969 L 82.855469 198.074219 C 82.855469 198.335938 82.722656 198.574219 82.542969 198.574219 L 75.886719 198.574219 C 75.714844 198.574219 75.578125 198.347656 75.578125 198.074219 Z M 89.230469 195.996094 L 89.820312 194.371094 C 89.949219 194.003906 90.226562 194.003906 90.375 194.1875 C 90.457031 194.265625 91.78125 195.8125 92.84375 195.8125 C 93.695312 195.8125 94.332031 194.921875 94.332031 193.792969 C 94.332031 192.453125 93.628906 191.535156 92.253906 190.640625 C 90.71875 189.640625 89.183594 188.066406 89.183594 184.96875 C 89.183594 182.628906 90.261719 179.925781 92.859375 179.925781 C 94.527344 179.925781 95.804688 181.289062 96.128906 181.683594 C 96.292969 181.84375 96.34375 182.289062 96.226562 182.550781 L 95.605469 184.046875 C 95.476562 184.363281 95.230469 184.574219 95.035156 184.363281 C 94.902344 184.230469 93.660156 182.917969 92.761719 182.917969 C 91.828125 182.917969 91.324219 183.917969 91.324219 184.757812 C 91.324219 185.992188 91.929688 186.832031 93.25 187.699219 C 94.839844 188.722656 96.671875 190.246094 96.671875 193.632812 C 96.671875 196.339844 95.214844 198.835938 92.910156 198.835938 C 90.847656 198.835938 89.640625 197.285156 89.3125 196.789062 C 89.164062 196.550781 89.082031 196.417969 89.230469 195.996094 Z M 103.472656 180.683594 C 103.472656 180.421875 103.617188 180.1875 103.785156 180.1875 L 105.304688 180.1875 C 105.46875 180.1875 105.613281 180.425781 105.613281 180.6875 L 105.613281 198.074219 C 105.613281 198.335938 105.46875 198.574219 105.304688 198.574219 L 103.78125 198.574219 C 103.613281 198.5625 103.476562 198.34375 103.472656 198.074219 Z M 118.351562 179.925781 C 119.824219 179.925781 121.234375 180.84375 122.34375 182.367188 C 122.472656 182.578125 122.492188 182.894531 122.363281 183.101562 L 121.347656 184.808594 C 121.214844 185.019531 121.066406 185.019531 120.921875 184.808594 C 120.242188 183.832031 119.363281 183.289062 118.449219 183.285156 C 116.410156 183.285156 114.789062 186.097656 114.789062 189.382812 C 114.789062 192.636719 116.410156 195.394531 118.46875 195.394531 C 119.382812 195.394531 120.085938 194.949219 120.414062 194.738281 L 120.414062 192.503906 L 119.105469 192.503906 C 118.925781 192.503906 118.792969 192.292969 118.792969 192.03125 L 118.792969 189.957031 C 118.792969 189.667969 118.925781 189.457031 119.105469 189.457031 L 122.246094 189.457031 C 122.40625 189.457031 122.539062 189.691406 122.539062 189.957031 L 122.539062 196.679688 C 122.542969 196.847656 122.492188 197.003906 122.410156 197.097656 C 122.410156 197.097656 120.722656 198.808594 118.351562 198.808594 C 116.796875 198.824219 115.300781 197.839844 114.195312 196.074219 C 113.09375 194.308594 112.476562 191.90625 112.484375 189.402344 C 112.484375 184.152344 115.097656 179.921875 118.351562 179.921875 Z M 129.652344 180.398438 C 129.652344 180.136719 129.800781 179.925781 129.960938 179.925781 L 130.371094 179.925781 L 137.175781 191.535156 L 137.191406 191.535156 L 137.191406 180.6875 C 137.191406 180.425781 137.324219 180.1875 137.5 180.1875 L 139.007812 180.1875 C 139.167969 180.1875 139.316406 180.425781 139.316406 180.6875 L 139.316406 198.363281 C 139.316406 198.625 139.167969 198.835938 139.007812 198.835938 L 138.613281 198.835938 L 131.777344 186.78125 L 131.761719 186.78125 L 131.761719 198.074219 C 131.761719 198.335938 131.628906 198.570312 131.453125 198.570312 L 129.960938 198.570312 C 129.792969 198.5625 129.660156 198.34375 129.652344 198.074219 Z M 42.3125 189.378906 C 42.3125 190.15625 42.148438 190.789062 41.949219 190.789062 L 0.910156 190.789062 C 0.710938 190.789062 0.550781 190.15625 0.550781 189.378906 C 0.550781 188.601562 0.710938 187.96875 0.910156 187.96875 L 41.949219 187.96875 C 42.148438 187.96875 42.308594 188.601562 42.308594 189.378906 Z M 199.542969 189.378906 C 199.542969 190.15625 199.382812 190.789062 199.183594 190.789062 L 158.144531 190.789062 C 157.945312 190.789062 157.785156 190.15625 157.785156 189.378906 C 157.785156 188.601562 157.945312 187.96875 158.144531 187.96875 L 199.183594 187.96875 C 199.382812 187.96875 199.542969 188.601562 199.542969 189.378906 Z M 199.542969 189.378906 "/>
</g>
</svg>
